<svg xmlns="http://www.w3.org/2000/svg" xmlns:xlink="http://www.w3.org/1999/xlink" width="84" height="84" viewBox="0 0 84 84"><defs><style>.a{fill:none;}.b{fill:#f8d929;}.c{fill:#fff;}.d{fill:#57c5ff;}.e{filter:url(#aa);}.f{filter:url(#y);}.g{filter:url(#w);}.h{filter:url(#u);}.i{filter:url(#s);}.j{filter:url(#q);}.k{filter:url(#o);}.l{filter:url(#m);}.m{filter:url(#k);}.n{filter:url(#i);}.o{filter:url(#g);}.p{filter:url(#e);}.q{filter:url(#c);}.r{filter:url(#a);}</style><filter id="a" x="22.5" y="0" width="21" height="27" filterUnits="userSpaceOnUse"><feOffset input="SourceAlpha"/><feGaussianBlur stdDeviation="3" result="b"/><feFlood flood-opacity="0.122"/><feComposite operator="in" in2="b"/><feComposite in="SourceGraphic"/></filter><filter id="c" x="6.587" y="6.59" width="25.246" height="25.243" filterUnits="userSpaceOnUse"><feOffset input="SourceAlpha"/><feGaussianBlur stdDeviation="3" result="d"/><feFlood flood-opacity="0.122"/><feComposite operator="in" in2="d"/><feComposite in="SourceGraphic"/></filter><filter id="e" x="0" y="22.5" width="27" height="21" filterUnits="userSpaceOnUse"><feOffset input="SourceAlpha"/><feGaussianBlur stdDeviation="3" result="f"/><feFlood flood-opacity="0.122"/><feComposite operator="in" in2="f"/><feComposite in="SourceGraphic"/></filter><filter id="g" x="6.587" y="34.167" width="25.246" height="25.242" filterUnits="userSpaceOnUse"><feOffset input="SourceAlpha"/><feGaussianBlur stdDeviation="3" result="h"/><feFlood flood-opacity="0.122"/><feComposite operator="in" in2="h"/><feComposite in="SourceGraphic"/></filter><filter id="i" x="34.164" y="6.59" width="25.246" height="25.243" filterUnits="userSpaceOnUse"><feOffset input="SourceAlpha"/><feGaussianBlur stdDeviation="3" result="j"/><feFlood flood-opacity="0.122"/><feComposite operator="in" in2="j"/><feComposite in="SourceGraphic"/></filter><filter id="k" x="11.999" y="12" width="42" height="42" filterUnits="userSpaceOnUse"><feOffset input="SourceAlpha"/><feGaussianBlur stdDeviation="3" result="l"/><feFlood flood-opacity="0.122"/><feComposite operator="in" in2="l"/><feComposite in="SourceGraphic"/></filter><filter id="m" x="18" y="18" width="66" height="48" filterUnits="userSpaceOnUse"><feOffset input="SourceAlpha"/><feGaussianBlur stdDeviation="3" result="n"/><feFlood flood-opacity="0.122"/><feComposite operator="in" in2="n"/><feComposite in="SourceGraphic"/></filter><filter id="o" x="20.999" y="51" width="23.999" height="24" filterUnits="userSpaceOnUse"><feOffset input="SourceAlpha"/><feGaussianBlur stdDeviation="3" result="p"/><feFlood flood-opacity="0.122"/><feComposite operator="in" in2="p"/><feComposite in="SourceGraphic"/></filter><filter id="q" x="32.999" y="51" width="23.999" height="24" filterUnits="userSpaceOnUse"><feOffset input="SourceAlpha"/><feGaussianBlur stdDeviation="3" result="r"/><feFlood flood-opacity="0.122"/><feComposite operator="in" in2="r"/><feComposite in="SourceGraphic"/></filter><filter id="s" x="44.999" y="51" width="23.999" height="24" filterUnits="userSpaceOnUse"><feOffset input="SourceAlpha"/><feGaussianBlur stdDeviation="3" result="t"/><feFlood flood-opacity="0.122"/><feComposite operator="in" in2="t"/><feComposite in="SourceGraphic"/></filter><filter id="u" x="56.999" y="51" width="23.999" height="24" filterUnits="userSpaceOnUse"><feOffset input="SourceAlpha"/><feGaussianBlur stdDeviation="3" result="v"/><feFlood flood-opacity="0.122"/><feComposite operator="in" in2="v"/><feComposite in="SourceGraphic"/></filter><filter id="w" x="23.999" y="60" width="23.999" height="24" filterUnits="userSpaceOnUse"><feOffset input="SourceAlpha"/><feGaussianBlur stdDeviation="3" result="x"/><feFlood flood-opacity="0.122"/><feComposite operator="in" in2="x"/><feComposite in="SourceGraphic"/></filter><filter id="y" x="35.999" y="60" width="23.999" height="24" filterUnits="userSpaceOnUse"><feOffset input="SourceAlpha"/><feGaussianBlur stdDeviation="3" result="z"/><feFlood flood-opacity="0.122"/><feComposite operator="in" in2="z"/><feComposite in="SourceGraphic"/></filter><filter id="aa" x="47.999" y="60" width="23.999" height="24" filterUnits="userSpaceOnUse"><feOffset input="SourceAlpha"/><feGaussianBlur stdDeviation="3" result="ab"/><feFlood flood-opacity="0.122"/><feComposite operator="in" in2="ab"/><feComposite in="SourceGraphic"/></filter></defs><g transform="translate(5.999 6)"><rect class="a" width="72" height="72"/><g class="r" transform="matrix(1, 0, 0, 1, -6, -6)"><path class="b" d="M464.191,1719.815a1.5,1.5,0,0,0,1.5-1.5v-6a1.5,1.5,0,0,0-3,0v6A1.5,1.5,0,0,0,464.191,1719.815Z" transform="translate(-431.19 -1701.81)"/></g><g class="q" transform="matrix(1, 0, 0, 1, -6, -6)"><path class="b" d="M462.07,1719.814a1.5,1.5,0,0,0,2.121-2.121l-4.245-4.242a1.5,1.5,0,0,0-2.121,2.121Z" transform="translate(-441.8 -1697.42)"/></g><g class="p" transform="matrix(1, 0, 0, 1, -6, -6)"><path class="b" d="M464.191,1719.815a1.5,1.5,0,0,0-1.5-1.5h-6a1.5,1.5,0,0,0,0,3h6A1.5,1.5,0,0,0,464.191,1719.815Z" transform="translate(-446.19 -1686.81)"/></g><g class="o" transform="matrix(1, 0, 0, 1, -6, -6)"><path class="b" d="M462.07,1722.645l-4.245,4.242a1.5,1.5,0,0,0,2.121,2.121l4.245-4.242a1.5,1.5,0,0,0-2.121-2.121Z" transform="translate(-441.8 -1679.04)"/></g><g class="n" transform="matrix(1, 0, 0, 1, -6, -6)"><path class="b" d="M473.386,1713.45a1.5,1.5,0,0,0-2.121,0l-4.245,4.242a1.5,1.5,0,1,0,2.121,2.121l4.245-4.242A1.5,1.5,0,0,0,473.386,1713.45Z" transform="translate(-423.41 -1697.42)"/></g><g class="m" transform="matrix(1, 0, 0, 1, -6, -6)"><circle class="b" cx="12" cy="12" r="12" transform="translate(21 21)"/></g><g class="l" transform="matrix(1, 0, 0, 1, -6, -6)"><path class="c" d="M498.937,1725.839a14.947,14.947,0,0,0-28.143,1.986c-.036,0-.069-.009-.105-.009a9.5,9.5,0,0,0,0,19h28a10.489,10.489,0,0,0,.246-20.976Z" transform="translate(-434.19 -1689.81)"/></g><g class="k" transform="matrix(1, 0, 0, 1, -6, -6)"><path class="d" d="M463.692,1733.815a1.5,1.5,0,0,1-1.062-2.559l3-3a1.5,1.5,0,0,1,2.121,2.121l-3,3A1.5,1.5,0,0,1,463.692,1733.815Z" transform="translate(-432.19 -1667.82)"/></g><g class="j" transform="matrix(1, 0, 0, 1, -6, -6)"><path class="d" d="M467.692,1733.815a1.5,1.5,0,0,1-1.062-2.559l3-3a1.5,1.5,0,0,1,2.121,2.121l-3,3A1.5,1.5,0,0,1,467.692,1733.815Z" transform="translate(-424.19 -1667.82)"/></g><g class="i" transform="matrix(1, 0, 0, 1, -6, -6)"><path class="d" d="M471.692,1733.815a1.5,1.5,0,0,1-1.062-2.559l3-3a1.5,1.5,0,0,1,2.121,2.121l-3,3A1.5,1.5,0,0,1,471.692,1733.815Z" transform="translate(-416.19 -1667.82)"/></g><g class="h" transform="matrix(1, 0, 0, 1, -6, -6)"><path class="d" d="M475.692,1733.815a1.5,1.5,0,0,1-1.062-2.559l3-3a1.5,1.5,0,0,1,2.121,2.121l-3,3A1.5,1.5,0,0,1,475.692,1733.815Z" transform="translate(-408.19 -1667.82)"/></g><g class="g" transform="matrix(1, 0, 0, 1, -6, -6)"><path class="d" d="M464.692,1736.815a1.5,1.5,0,0,1-1.062-2.559l3-3a1.5,1.5,0,1,1,2.121,2.121l-3,3A1.5,1.5,0,0,1,464.692,1736.815Z" transform="translate(-430.19 -1661.82)"/></g><g class="f" transform="matrix(1, 0, 0, 1, -6, -6)"><path class="d" d="M468.692,1736.815a1.5,1.5,0,0,1-1.062-2.559l3-3a1.5,1.5,0,1,1,2.121,2.121l-3,3A1.5,1.5,0,0,1,468.692,1736.815Z" transform="translate(-422.19 -1661.82)"/></g><g class="e" transform="matrix(1, 0, 0, 1, -6, -6)"><path class="d" d="M472.692,1736.815a1.5,1.5,0,0,1-1.062-2.559l3-3a1.5,1.5,0,0,1,2.121,2.121l-3,3A1.5,1.5,0,0,1,472.692,1736.815Z" transform="translate(-414.19 -1661.82)"/></g></g></svg>